<?xml version="1.0" encoding="UTF-8"?>
<svg version="1.1" xmlns="http://www.w3.org/2000/svg" width="1024" height="1024">
<path d="M0 0 C0.66 0 1.32 0 2 0 C3.26921613 1.62078303 4.46502621 3.2993213 5.625 5 C8.79977959 9.48373031 12.11015098 13.32234327 16.07421875 17.109375 C17.96862047 18.96919332 19.66757858 20.90618833 21.375 22.9375 C58.27624754 65.56051402 118.87123313 91.82866147 170 113 C170.6705542 113.27823608 171.3411084 113.55647217 172.03198242 113.84313965 C186.39414488 119.79410073 200.81027894 125.56537689 215.46875 130.75 C216.34414932 131.06014542 217.21954865 131.37029083 218.12147522 131.68983459 C222.3597729 133.18722369 226.60320251 134.66664952 230.85717773 136.11889648 C251.27944773 143.1788367 263.76981247 153.44620712 275 172 C282.50891234 184.27600833 289.72751671 195.41806475 303 202 C303.94939453 202.50853516 303.94939453 202.50853516 304.91796875 203.02734375 C311.85021808 206.23480239 320.37921728 206.12669303 327.69140625 204.34375 C334.22372275 201.77945655 338.35135426 197.71638141 341.19091797 191.31542969 C344.47535888 182.71234869 347.25374946 174.00797336 349.875 165.1875 C350.30809246 163.74346939 350.74152782 162.29954158 351.17529297 160.85571289 C354.85279905 148.59093996 358.4550153 136.30370826 362 124 C361.21608887 123.85828369 360.43217773 123.71656738 359.62451172 123.57055664 C352.20700093 121.9580243 346.42288786 114.7912188 342 109 C342 108.67 342 108.34 342 108 C342.66193359 107.92072266 343.32386719 107.84144531 344.00585938 107.75976562 C359.90057165 105.77976361 374.30245988 102.26107169 389.37158203 96.91015625 C402.75582502 92.27552334 417.1661405 88.87143828 430.75390625 94.5390625 C432.91645436 95.94565901 433.97364773 97.15981462 435.6015625 99.109375 C438.31370943 101.91628627 440.20579407 102.44920519 444.08203125 102.6640625 C445.9921662 102.67990329 447.90274153 102.66609769 449.8125 102.625 C458.88230495 102.50151729 464.95008057 104.0159567 472.75 108.625 C477.83009544 113.98732297 480.3125 119.72734218 480.3125 127.125 C480.23365667 128.75142535 480.13879924 130.37759115 480 132 C479.113125 131.505 478.22625 131.01 477.3125 130.5 C470.39006073 127.63650102 463.25476867 127.84826035 456.2578125 130.32421875 C449.63519613 133.27947229 443.91274444 136.72788532 440 143 C439.38125 143.928125 438.7625 144.85625 438.125 145.8125 C433.43507102 159.10063211 441.53047011 174.25557737 447.0625 186.25 C447.37832031 186.94037354 447.69414063 187.63074707 448.01953125 188.34204102 C450.79604167 194.12762306 454.03141654 199.60025795 460.125 202.3125 C460.78757812 202.61800781 461.45015625 202.92351562 462.1328125 203.23828125 C469.66778818 206.312173 478.78344102 206.24050408 486.375 203.3125 C487.93608004 202.58178168 489.47958587 201.8119489 491 201 C491.70769531 200.62617188 492.41539062 200.25234375 493.14453125 199.8671875 C503.35100036 193.97358584 509.64548036 184.70327941 515.53515625 174.7421875 C527.62599763 154.31543782 541.14845377 142.41680191 564 135 C624.88739061 114.69964637 687.23500444 88.40848303 739 50 C739.58426758 49.5673584 740.16853516 49.1347168 740.77050781 48.68896484 C758.50513438 35.47682033 775.83912679 20.93255089 788.6171875 2.69140625 C789.30167969 1.85416016 789.30167969 1.85416016 790 1 C790.66 1 791.32 1 792 1 C796.78195967 30.11941298 788.40838333 58.01795947 771.90234375 82.0546875 C752.58298631 108.43738263 725.31093552 125.61286061 697 141 C696.08959961 141.49693359 695.17919922 141.99386719 694.24121094 142.50585938 C675.66122926 152.63379468 656.95039697 162.57852541 638 172 C694.60077739 157.20885608 756.95941268 136.97337564 800.49609375 96.328125 C802 95 802 95 803 95 C802.26323624 124.20263638 787.8360383 151.46848319 767.33886719 171.63427734 C759.04373123 179.46697504 750.03831626 185.62738003 740 191 C739.11610596 191.48581543 739.11610596 191.48581543 738.21435547 191.98144531 C709.79567415 207.36353386 675.57824649 214.77605182 644.41967773 222.42456055 C643.74978821 222.58906204 643.07989868 222.75356354 642.38970947 222.92304993 C640.55929645 223.37147032 638.72827538 223.8174066 636.8972168 224.26318359 C633.96188555 224.97234519 633.96188555 224.97234519 631 226 C653.75843632 226.54839606 676.56280664 224.80838211 699 221 C700.05429199 220.82597656 701.10858398 220.65195312 702.19482422 220.47265625 C729.38406608 215.93655377 754.17145382 207.96119743 779 196 C774.60098084 211.11075506 765.4421578 225.3632377 755 237 C753.78376953 238.36511719 753.78376953 238.36511719 752.54296875 239.7578125 C738.88247264 254.19071146 720.90746918 263.54432057 702 269 C700.99453125 269.29648437 699.9890625 269.59296875 698.953125 269.8984375 C677.36004725 275.79276413 654.19577689 275.17551129 632 275.5625 C629.66405656 275.60580026 627.32811897 275.64941773 624.9921875 275.69335938 C619.32818725 275.7992259 613.66412756 275.90119248 608 276 C625.47670946 280.04201774 642.77514665 283.77419122 660.63134766 285.72363281 C662.78930959 285.97541728 664.92848227 286.27819001 667.07421875 286.6171875 C685.95463715 289.54656166 704.16959165 287.48691027 723 285 C721.78172807 288.42410463 720.56148951 290.82517407 718.015625 293.41796875 C717.4175 294.02769531 716.819375 294.63742187 716.203125 295.265625 C715.55859375 295.89984375 714.9140625 296.5340625 714.25 297.1875 C713.5796875 297.84878906 712.909375 298.51007813 712.21875 299.19140625 C691.63006976 319.08347701 666.12118026 328.67096491 637.54052734 328.22753906 C630.15181797 327.96699598 623.0178916 326.43209268 615.8125 324.875 C614.28683985 324.5578508 612.76104044 324.24137084 611.23510742 323.92553711 C599.35704749 321.43337656 587.63339361 318.46337672 576 315 C593.0868904 332.0868904 625.89618913 341.78954571 648.87792969 346.54052734 C652.27409817 347.27586893 655.6340561 348.13761934 659 349 C655.4299378 352.87991665 651.81904859 355.5592177 647.125 358 C646.47442627 358.3417627 645.82385254 358.68352539 645.15356445 359.03564453 C638.33360378 362.50747556 631.36004522 364.91760462 624 367 C622.72962891 367.36931641 622.72962891 367.36931641 621.43359375 367.74609375 C593.43198254 374.61620141 567.71461394 359.99388821 544 347 C556.82871463 365.27119963 576.53938001 379.38182187 596 390 C593.40114325 391.3802817 590.98580747 392.37889339 588.125 393.0625 C587.48820313 393.21847656 586.85140625 393.37445312 586.1953125 393.53515625 C572.44948741 396.44574911 555.83143875 397.31269322 543 391 C541.44345703 390.27103516 541.44345703 390.27103516 539.85546875 389.52734375 C531.42428098 385.29674775 524.29403134 379.91649009 517 374 C515.33355425 372.66639056 513.66696558 371.33295961 512 370 C518.27656057 382.99329552 524.81214032 394.77138865 534.27734375 405.78515625 C536 408 536 408 536 410 C518.43691258 411.19748323 503.94942038 405.53197478 490.0703125 395.00390625 C487.27641062 393.64912741 485.93083741 394.09033284 483 395 C481.39198492 396.53142498 481.39198492 396.53142498 480.203125 398.63671875 C479.69974609 399.45060059 479.19636719 400.26448242 478.67773438 401.10302734 C475.28452822 406.96213448 471.9930892 412.86954642 468.75 418.8125 C468.02379095 420.13495978 467.29723065 421.45722674 466.5703125 422.77929688 C464.70342501 426.18080324 462.83917199 429.58339298 461 433 C460.59547607 433.71478516 460.19095215 434.42957031 459.77416992 435.16601562 C458.17501175 438.9543714 459.29704502 443.19260087 460.73779297 446.89697266 C461.7268547 448.92209372 462.80522745 450.86375725 463.9375 452.8125 C464.57981567 453.94171875 464.57981567 453.94171875 465.23510742 455.09375 C479.31193532 479.29829398 496.13819891 501.98538727 513.41015625 523.96923828 C515.68950222 526.88072473 517.94009219 529.81383392 520.1875 532.75 C522.7626843 536.11097851 525.35363602 539.45497757 527.98828125 542.76953125 C528.49012939 543.40213867 528.99197754 544.03474609 529.5090332 544.68652344 C530.47706874 545.9045331 531.44809344 547.12017524 532.42260742 548.33300781 C534.62321022 551.10308792 536.5967721 553.73908971 538 557 C521.60953975 561.27928273 505.88571428 563.9697479 490.27734375 555.52734375 C477.58843974 547.23150697 469.96718343 534.34071521 461.9375 521.875 C460.87124237 520.23385518 459.80419068 518.59322598 458.73632812 516.953125 C456.14836871 512.97462903 453.57122155 508.98933171 451 505 C451 507.46191636 451.70574688 509.09927557 452.58544922 511.40429688 C452.93391403 512.32216476 453.28237885 513.24003265 453.6414032 514.18571472 C454.02528702 515.18661636 454.40917084 516.18751801 454.8046875 517.21875 C455.19956863 518.25594681 455.59444977 519.29314362 456.001297 520.36177063 C457.28932768 523.742412 458.58209538 527.12121997 459.875 530.5 C460.75652078 532.81069394 461.63778712 535.12148496 462.51879883 537.43237305 C468.70419916 553.64790773 474.91797207 569.8526016 481.17529297 586.04052734 C482.32827201 589.02584384 483.47703636 592.01275199 484.625 595 C484.96877686 595.8866333 485.31255371 596.7732666 485.66674805 597.68676758 C485.97523682 598.49138428 486.28372559 599.29600098 486.6015625 600.125 C486.87307129 600.82882812 487.14458008 601.53265625 487.42431641 602.2578125 C488 604 488 604 488 606 C471.04433214 605.29498263 454.60443952 600.33026194 442.18359375 588.40625 C431.53128006 576.66774332 427.69379969 559.41609114 422.6875 544.6875 C422.1323913 543.06046844 421.57705415 541.4335148 421.02148438 539.80664062 C419.67836195 535.87198448 418.33830865 531.93629593 417 528 C417.71247435 538.55950794 419.11092949 549.013802 420.5 559.5 C427.88093827 615.21925945 427.88093827 615.21925945 409.0625 639.8125 C405.35037686 644.54978967 401.39663751 648.89009972 397 653 C384.40219019 647.87399463 376.53976955 630.65111386 371.26171875 619.140625 C368.6199546 612.56484056 367.66149825 606.84953853 367.73046875 599.83984375 C367.73547897 598.96980209 367.7404892 598.09976044 367.74565125 597.20335388 C367.8908087 587.5681967 369.04187612 578.10298504 370.3125 568.5625 C370.54284667 566.76322178 370.7722498 564.96382252 371.00073242 563.16430664 C372.54452501 551.09321713 374.16632227 539.03071485 376 527 C374.09064202 530.51216766 372.87433529 534.14572761 371.625 537.9375 C371.40368408 538.60499268 371.18236816 539.27248535 370.9543457 539.96020508 C369.6187838 544.01505386 368.38213012 548.08859133 367.1875 552.1875 C358.88084988 579.21760743 358.88084988 579.21760743 350 588 C349.40832031 588.61617187 348.81664062 589.23234375 348.20703125 589.8671875 C336.79888764 600.82841415 320.3994181 604.90004156 305 606 C305.57806932 599.81138216 307.48353312 594.52260095 309.7265625 588.75 C310.1066748 587.7546524 310.48678711 586.75930481 310.87841797 585.73379517 C312.12044032 582.48652899 313.37267477 579.24330505 314.625 576 C315.4842217 573.75855386 316.34277741 571.51685232 317.20068359 569.27490234 C319.79081784 562.51287665 322.39407782 555.75595426 325 549 C325.78389685 546.96648781 326.5677526 544.93295977 327.3515625 542.89941406 C327.72181549 541.93900208 328.09206848 540.97859009 328.47354126 539.98907471 C329.18951272 538.13167824 329.90531755 536.27421753 330.62094116 534.41668701 C332.2569026 530.17066912 333.89556944 525.92575651 335.54150391 521.68359375 C336.12405437 520.17709529 336.7065757 518.67058557 337.2890625 517.1640625 C337.55170898 516.490336 337.81435547 515.8166095 338.08496094 515.12246704 C339.24641292 512.11236739 340.32708769 509.15980535 341 506 C336.22167039 512.33915934 331.77512597 518.81539229 327.5 525.5 C317.16188032 541.60081513 308.74648115 552.99217435 290.625 560.375 C281.55087694 561.93950398 272.75074424 561.17292914 263.75 559.625 C263.01088379 559.49907471 262.27176758 559.37314941 261.51025391 559.2434082 C256.25790132 558.25790132 256.25790132 558.25790132 254 556 C255.12535156 554.60201172 255.12535156 554.60201172 256.2734375 553.17578125 C262.12318961 545.89485006 267.91535457 538.57761131 273.5859375 531.15625 C275.16752568 529.08841303 276.75583771 527.02569756 278.3515625 524.96875 C297.18092738 500.6807093 315.52440947 475.62295559 330.3125 448.625 C330.8998291 447.58158447 330.8998291 447.58158447 331.49902344 446.51708984 C333.65708769 442.45844625 334.29549962 440.3777562 333 436 C332.03377404 433.98762034 330.99279765 432.01036416 329.90234375 430.0625 C329.26490234 428.91910156 328.62746094 427.77570313 327.97070312 426.59765625 C327.63562744 426.00484863 327.30055176 425.41204102 326.95532227 424.80126953 C325.95833259 423.03686803 324.97143306 421.2671524 323.98632812 419.49609375 C317.04383609 405.95271355 317.04383609 405.95271355 308 394 C304.4645233 393.38190967 303.08546022 393.94819251 299.984375 395.828125 C298.8997551 396.62666932 297.82186544 397.43441565 296.75 398.25 C291.70480062 401.90156062 286.89900559 404.94727046 281 407 C280.17371094 407.29648437 279.34742188 407.59296875 278.49609375 407.8984375 C270.98623188 410.28147955 263.82620613 410.3084782 256 410 C257.46331005 406.74080943 259.32169645 404.28333467 261.625 401.5625 C268.93785365 392.53756265 274.53752088 382.70565903 279 372 C275.43921401 373.55680876 272.81603661 375.72911148 269.875 378.25 C264.80434808 382.42543801 259.86627501 386.0341813 254 389 C252.90945313 389.56074219 251.81890625 390.12148438 250.6953125 390.69921875 C233.64752045 398.64225067 213.51483228 396.39659206 196 391 C198.42077563 388.28969639 201.00506171 386.78760103 204.1875 385.0625 C220.96841193 375.44144383 237.06700775 362.24479186 249 347 C248.04222656 347.4846875 247.08445312 347.969375 246.09765625 348.46875 C241.74164436 350.66583942 237.37319787 352.83734865 233 355 C232.26845703 355.36287109 231.53691406 355.72574219 230.78320312 356.09960938 C221.71129019 360.57443435 212.82945232 364.43800082 203 367 C202.38543945 367.17587646 201.77087891 367.35175293 201.13769531 367.53295898 C196.3246115 368.85367952 191.85934685 369.35326937 186.875 369.3125 C186.13781738 369.30686035 185.40063477 369.3012207 184.64111328 369.29541016 C166.072157 368.89130229 149.11833793 361.35502598 134 351 C133.67 350.34 133.34 349.68 133 349 C134.12921875 348.74476563 134.12921875 348.74476563 135.28125 348.484375 C137.56276115 347.96383605 139.84255057 347.43572441 142.12109375 346.90234375 C144.65079045 346.31386446 147.18459528 345.74269546 149.72265625 345.19140625 C172.97339817 339.8695172 195.0289615 328.8760643 215 316 C213.90945313 316.24234375 212.81890625 316.4846875 211.6953125 316.734375 C210.97561279 316.89429932 210.25591309 317.05422363 209.5144043 317.21899414 C207.90127054 317.57748662 206.28815242 317.93604952 204.67504883 318.29467773 C200.53502417 319.21499484 196.39478962 320.13433496 192.25390625 321.05078125 C190.73176859 321.38801069 189.20963314 321.72525012 187.6875 322.0625 C186.94081055 322.22758057 186.19412109 322.39266113 185.42480469 322.56274414 C179.93349004 323.78081977 174.458596 325.06085544 168.9921875 326.38671875 C143.58909018 331.5933588 117.39260575 326.23557764 95.69238281 312.16992188 C85.85709028 305.37091411 74.86404032 296.45328926 69 286 C73.49152419 285.91016952 77.58805484 286.18964273 82 287 C103.77055579 290.23553908 125.91732629 287.30420588 147.4375 283.6875 C148.56687988 283.49905518 149.69625977 283.31061035 150.85986328 283.11645508 C161.68405025 281.21842937 172.33105791 278.6180364 183 276 C182.36504608 275.99635437 181.73009216 275.99270874 181.07589722 275.98895264 C77.68088163 275.33725742 77.68088163 275.33725742 41.2265625 241.2578125 C37.44476983 237.42294204 34.16588857 233.35309678 31 229 C30.608125 228.46665039 30.21625 227.93330078 29.8125 227.38378906 C22.65524938 217.53697786 17.61038922 207.24265304 13 196 C16.27308033 197.2797332 19.46250931 198.65630256 22.6328125 200.171875 C34.53298557 205.78203454 46.29415508 210.56773812 59 214 C60.21840576 214.32991943 60.21840576 214.32991943 61.46142578 214.66650391 C94.01077298 223.29274545 127.4275758 226.3017433 161 226 C160.17089111 225.78907715 159.34178223 225.5781543 158.48754883 225.36083984 C141.92373918 221.1388495 125.38232289 216.88884241 109 212 C107.95972656 211.690625 106.91945313 211.38125 105.84765625 211.0625 C64.68794753 198.76741781 24.88421481 182.61246138 2.92529297 143.06445312 C-4.65285661 128.60216472 -10.53083636 112.45592716 -10 96 C-5.81322744 99.11955602 -1.65792975 102.26681799 2.44921875 105.49072266 C37.93162929 133.18719263 80.42377544 149.54162702 123 163 C123.61238525 163.19418518 124.22477051 163.38837036 124.85571289 163.58843994 C129.5256589 165.06908 134.19904639 166.53844912 138.875 168 C139.52035706 168.20217133 140.16571411 168.40434265 140.83062744 168.61264038 C142.65428014 169.18257934 144.47945125 169.74765292 146.3046875 170.3125 C147.35640137 170.63863281 148.40811523 170.96476563 149.49169922 171.30078125 C151.88710178 172.08950795 151.88710178 172.08950795 154 172 C153.38817871 171.69932617 152.77635742 171.39865234 152.14599609 171.08886719 C139.9425107 165.07687271 127.84199871 158.93359514 115.93408203 152.35351562 C111.00233921 149.62950037 106.04675189 146.97966676 101.02880859 144.41821289 C92.31879529 139.95309465 83.90795203 135.04616735 75.5625 129.9375 C74.49676758 129.2887793 73.43103516 128.64005859 72.33300781 127.97167969 C39.64523464 107.74123008 11.53089654 80.22998363 1.9296875 41.94921875 C-0.0721916 32.90189138 -1.17179521 24.12485219 -1.125 14.875 C-1.12886719 14.10285156 -1.13273437 13.33070313 -1.13671875 12.53515625 C-1.12941084 8.24541548 -0.85027399 4.22437713 0 0 Z " fill="#FDFDFD" transform="translate(116,186)"/>
<path d="M0 0 C-0.57691478 3.16854747 -1.41646887 4.78226459 -3.72265625 7.015625 C-4.26083984 7.54414063 -4.79902344 8.07265625 -5.35351562 8.6171875 C-5.91748047 9.15601563 -6.48144531 9.69484375 -7.0625 10.25 C-7.63033203 10.80429687 -8.19816406 11.35859375 -8.78320312 11.9296875 C-10.18212469 13.29334214 -11.59019114 14.64760417 -13 16 C-17.33322092 14.60939615 -21.36485433 12.96366534 -25.4609375 11 C-37.29306789 6.33996095 -50.99666332 6.35935818 -62.9375 10.61328125 C-77.92229618 17.3984887 -86.85041723 28.07746675 -93 43 C-94.07518356 46.34501552 -94.68787275 49.5041748 -95 53 C-95.08121094 53.8353125 -95.16242188 54.670625 -95.24609375 55.53125 C-95.71086662 65.10838792 -93.20846849 75.24415815 -88.6875 83.6875 C-87 87 -87 87 -87.22875977 89.01855469 C-88.08143129 91.20921061 -88.99151702 92.3650111 -90.65234375 94.015625 C-91.44608398 94.80839844 -91.44608398 94.80839844 -92.25585938 95.6171875 C-92.81080078 96.15601563 -93.36574219 96.69484375 -93.9375 97.25 C-94.48857422 97.80429687 -95.03964844 98.35859375 -95.60742188 98.9296875 C-99.73287408 103 -99.73287408 103 -102 103 C-115.06465123 86.34551217 -118.20019478 66.69126267 -116 46 C-114.70778737 38.9499913 -112.72734084 32.36958541 -109.4375 26 C-109.09380371 25.32775391 -108.75010742 24.65550781 -108.39599609 23.96289062 C-98.97761126 6.27665035 -82.91530769 -5.83325392 -64 -12 C-42.76494014 -18.16727811 -17.42718976 -13.73051315 0 0 Z " fill="#030303" transform="translate(556,435)"/>
<path d="M0 0 C9.36482027 8.2334997 14.35898939 23.4816316 15.17138672 35.54492188 C16.23039659 57.26781478 12.59588262 75.58770466 -1.85546875 92.6640625 C-13.8629922 105.74329569 -30.13135221 116.14912077 -48.32666016 117.12475586 C-68.67174309 117.73453846 -84.07244902 114.61694675 -101 103 C-99.34136495 98.67495164 -96.128959 95.90581175 -92.875 92.75 C-92.31167969 92.19570313 -91.74835938 91.64140625 -91.16796875 91.0703125 C-89.78313972 89.70895515 -88.39216796 88.35385141 -87 87 C-86.02160156 87.48210937 -85.04320312 87.96421875 -84.03515625 88.4609375 C-73.92782174 93.50565139 -73.92782174 93.50565139 -63 96 C-62.12601562 96.0928125 -61.25203125 96.185625 -60.3515625 96.28125 C-47.15430853 96.98887756 -34.33428709 92.01710651 -24 84 C-23.28457031 83.45085937 -22.56914063 82.90171875 -21.83203125 82.3359375 C-12.40193729 74.05496524 -6.64214417 60.32926436 -5.79296875 47.9921875 C-5.45269522 37.33028366 -7.19094225 27.91719107 -13.109375 18.9375 C-14.25515858 16.44491817 -13.90732009 15.55331674 -13 13 C-11.69311523 11.35253906 -11.69311523 11.35253906 -10.05859375 9.765625 C-9.18364258 8.90517578 -9.18364258 8.90517578 -8.29101562 8.02734375 C-7.67935547 7.44082031 -7.06769531 6.85429687 -6.4375 6.25 C-5.51420898 5.34701172 -5.51420898 5.34701172 -4.57226562 4.42578125 C-3.05485187 2.94365619 -1.52829404 1.4709033 0 0 Z " fill="#030303" transform="translate(569,449)"/>
<path d="M0 0 C13.86 0 27.72 0 42 0 C42 0.33 42 0.66 42 1 C31.11 1 20.22 1 9 1 C9 1.66 9 2.32 9 3 C4.545 2.01 4.545 2.01 0 1 C0 0.67 0 0.34 0 0 Z " fill="#292929" transform="translate(722,461)"/>
<path d="M0 0 C0.97961897 2.93885692 1.03775226 4.05758525 0.66015625 7.01171875 C0.56669922 7.76904297 0.47324219 8.52636719 0.37695312 9.30664062 C0.27318359 10.09232422 0.16941406 10.87800781 0.0625 11.6875 C-0.03740234 12.48478516 -0.13730469 13.28207031 -0.24023438 14.10351562 C-0.48748847 16.06977435 -0.74295637 18.03499706 -1 20 C-1.33 20 -1.66 20 -2 20 C-2.144375 19.0925 -2.28875 18.185 -2.4375 17.25 C-2.87486403 14.19262007 -2.87486403 14.19262007 -3.65625 12.125 C-4.13148274 9.18719761 -3.23728061 7.45555534 -2.0625 4.75 C-1.68222656 3.85796875 -1.30195313 2.9659375 -0.91015625 2.046875 C-0.60980469 1.37140625 -0.30945313 0.6959375 0 0 Z " fill="#3F3F3F" transform="translate(492,710)"/>
<path d="M0 0 C2.10046143 2.10046143 2.53940212 3.08764028 3.3125 5.875 C3.51488281 6.55304687 3.71726562 7.23109375 3.92578125 7.9296875 C4 10 4 10 1 14 C0.67 9.38 0.34 4.76 0 0 Z " fill="#343434" transform="translate(532,712)"/>
<path d="M0 0 C1 2 1 2 0.44140625 3.9453125 C0.15136719 4.66460938 -0.13867188 5.38390625 -0.4375 6.125 C-0.72496094 6.84945312 -1.01242187 7.57390625 -1.30859375 8.3203125 C-1.53675781 8.87460937 -1.76492188 9.42890625 -2 10 C-2.99 10 -3.98 10 -5 10 C-5 6.60406522 -4.47834052 5.93380119 -2.5 3.3125 C-2.0359375 2.68988281 -1.571875 2.06726563 -1.09375 1.42578125 C-0.7328125 0.95527344 -0.371875 0.48476563 0 0 Z " fill="#212222" transform="translate(458,689)"/>
<path d="M0 0 C0 0.99 0 1.98 0 3 C-3.83887763 4.48320272 -6.06204091 5.22419163 -10 4 C-8.71086513 3.32845067 -7.41859796 2.66291141 -6.125 2 C-5.40570312 1.62875 -4.68640625 1.2575 -3.9453125 0.875 C-2 0 -2 0 0 0 Z " fill="#2F2F2F" transform="translate(762,354)"/>
<path d="M0 0 C3 1.1875 3 1.1875 5 3.1875 C-1.625 2.4375 -1.625 2.4375 -5 0.1875 C-3 -0.8125 -3 -0.8125 0 0 Z " fill="#333433" transform="translate(267,355.8125)"/>
</svg>
